REM DIRINDEX 1\3,1\2\4,1\2\5,1\2\6
REM DIRNAME folder01,folder02,folder03,folder04,folder05,folder06
TITLE ""
FILE "130.mp3" MP3
  TRACK 01 AUDIO
    TITLE "4:cjc137_5425"
    INDEX 01 00:00:00
  TRACK 02 AUDIO
    TITLE "0:"
    INDEX 01 00:01:15
  TRACK 03 AUDIO
    TITLE "6:cjc137_5426"
    INDEX 01 00:01:21
  TRACK 04 AUDIO
    TITLE "0:"
    INDEX 01 00:02:30
  TRACK 05 AUDIO
    TITLE "5:cjc137_5427"
    INDEX 01 00:02:36
  TRACK 06 AUDIO
    TITLE "0:"
    INDEX 01 00:03:47
  TRACK 07 AUDIO
    TITLE "4:cjc137_5428"
    INDEX 01 00:04:56
  TRACK 08 AUDIO
    TITLE "0:"
    INDEX 01 00:05:69
  TRACK 09 AUDIO
    TITLE "6:cjc137_5429"
    INDEX 01 00:06:04
  TRACK 10 AUDIO
    TITLE "0:"
    INDEX 01 00:06:63
  TRACK 11 AUDIO
    TITLE "5:cjc137_5430"
    INDEX 01 00:06:69
  TRACK 12 AUDIO
    TITLE "0:"
    INDEX 01 00:08:09
  TRACK 13 AUDIO
    TITLE "4:cjc137_5431"
    INDEX 01 00:09:20
  TRACK 14 AUDIO
    TITLE "0:"
    INDEX 01 00:10:51
  TRACK 15 AUDIO
    TITLE "6:cjc137_5432"
    INDEX 01 00:10:57
  TRACK 16 AUDIO
    TITLE "0:"
    INDEX 01 00:11:72
  TRACK 17 AUDIO
    TITLE "5:cjc137_5433"
    INDEX 01 00:12:01
  TRACK 18 AUDIO
    TITLE "0:"
    INDEX 01 00:13:33
  TRACK 19 AUDIO
    TITLE "4:cjc137_5434"
    INDEX 01 00:14:41
  TRACK 20 AUDIO
    TITLE "0:"
    INDEX 01 00:15:42
  TRACK 21 AUDIO
    TITLE "6:cjc137_5435"
    INDEX 01 00:15:52
  TRACK 22 AUDIO
    TITLE "0:"
    INDEX 01 00:16:48
  TRACK 23 AUDIO
    TITLE "5:cjc137_5436"
    INDEX 01 00:16:53
  TRACK 24 AUDIO
    TITLE "0:"
    INDEX 01 00:17:57
  TRACK 25 AUDIO
    TITLE "4:cjc137_5437"
    INDEX 01 00:18:66
  TRACK 26 AUDIO
    TITLE "0:"
    INDEX 01 00:19:67
  TRACK 27 AUDIO
    TITLE "6:cjc137_5438"
    INDEX 01 00:20:02
  TRACK 28 AUDIO
    TITLE "0:"
    INDEX 01 00:21:00
  TRACK 29 AUDIO
    TITLE "5:cjc137_5439"
    INDEX 01 00:21:04
  TRACK 30 AUDIO
    TITLE "0:"
    INDEX 01 00:22:03
  TRACK 31 AUDIO
    TITLE "4:cjc137_5440"
    INDEX 01 00:23:14
  TRACK 32 AUDIO
    TITLE "0:"
    INDEX 01 00:24:27
  TRACK 33 AUDIO
    TITLE "6:cjc137_5441"
    INDEX 01 00:24:33
  TRACK 34 AUDIO
    TITLE "0:"
    INDEX 01 00:25:52
  TRACK 35 AUDIO
    TITLE "5:cjc137_5442"
    INDEX 01 00:25:56
  TRACK 36 AUDIO
    TITLE "0:"
    INDEX 01 00:26:69
  TRACK 37 AUDIO
    TITLE "4:cjc137_5443"
    INDEX 01 00:28:02
  TRACK 38 AUDIO
    TITLE "0:"
    INDEX 01 00:29:38
  TRACK 39 AUDIO
    TITLE "6:cjc137_5444"
    INDEX 01 00:29:44
  TRACK 40 AUDIO
    TITLE "0:"
    INDEX 01 00:30:26
  TRACK 41 AUDIO
    TITLE "5:cjc137_5445"
    INDEX 01 00:30:36
  TRACK 42 AUDIO
    TITLE "0:"
    INDEX 01 00:31:71
  TRACK 43 AUDIO
    TITLE "4:cjc137_5446"
    INDEX 01 00:33:03
  TRACK 44 AUDIO
    TITLE "0:"
    INDEX 01 00:34:12
  TRACK 45 AUDIO
    TITLE "6:cjc137_5447"
    INDEX 01 00:34:18
  TRACK 46 AUDIO
    TITLE "0:"
    INDEX 01 00:35:23
  TRACK 47 AUDIO
    TITLE "5:cjc137_5448"
    INDEX 01 00:35:27
  TRACK 48 AUDIO
    TITLE "0:"
    INDEX 01 00:36:36
  TRACK 49 AUDIO
    TITLE "4:cjc137_5449"
    INDEX 01 00:37:44
  TRACK 50 AUDIO
    TITLE "0:"
    INDEX 01 00:38:53
  TRACK 51 AUDIO
    TITLE "6:cjc137_5450"
    INDEX 01 00:38:63
  TRACK 52 AUDIO
    TITLE "0:"
    INDEX 01 00:40:15
  TRACK 53 AUDIO
    TITLE "5:cjc137_5451"
    INDEX 01 00:40:19
  TRACK 54 AUDIO
    TITLE "0:"
    INDEX 01 00:41:30
  TRACK 55 AUDIO
    TITLE "4:cjc137_5452"
    INDEX 01 00:42:39
  TRACK 56 AUDIO
    TITLE "0:"
    INDEX 01 00:43:54
  TRACK 57 AUDIO
    TITLE "6:cjc137_5453"
    INDEX 01 00:43:60
  TRACK 58 AUDIO
    TITLE "0:"
    INDEX 01 00:44:61
  TRACK 59 AUDIO
    TITLE "5:cjc137_5454"
    INDEX 01 00:44:67
  TRACK 60 AUDIO
    TITLE "0:"
    INDEX 01 00:46:07
  TRACK 61 AUDIO
    TITLE "4:cjc137_5455"
    INDEX 01 00:47:15
  TRACK 62 AUDIO
    TITLE "0:"
    INDEX 01 00:48:24
  TRACK 63 AUDIO
    TITLE "6:cjc137_5456"
    INDEX 01 00:48:32
  TRACK 64 AUDIO
    TITLE "0:"
    INDEX 01 00:49:18
  TRACK 65 AUDIO
    TITLE "5:cjc137_5457"
    INDEX 01 00:49:27
  TRACK 66 AUDIO
    TITLE "0:"
    INDEX 01 00:50:35
  TRACK 67 AUDIO
    TITLE "4:cjc137_5458"
    INDEX 01 00:51:44
  TRACK 68 AUDIO
    TITLE "0:"
    INDEX 01 00:52:45
  TRACK 69 AUDIO
    TITLE "6:cjc137_5459"
    INDEX 01 00:52:53
  TRACK 70 AUDIO
    TITLE "0:"
    INDEX 01 00:53:41
  TRACK 71 AUDIO
    TITLE "5:cjc137_5460"
    INDEX 01 00:53:47
  TRACK 72 AUDIO
    TITLE "0:"
    INDEX 01 00:54:48
  TRACK 73 AUDIO
    TITLE "4:cjc137_5461"
    INDEX 01 00:55:55
  TRACK 74 AUDIO
    TITLE "0:"
    INDEX 01 00:56:74
  TRACK 75 AUDIO
    TITLE "6:cjc137_5462"
    INDEX 01 00:57:07
  TRACK 76 AUDIO
    TITLE "0:"
    INDEX 01 00:58:09
  TRACK 77 AUDIO
    TITLE "5:cjc137_5463"
    INDEX 01 00:58:15
  TRACK 78 AUDIO
    TITLE "0:"
    INDEX 01 00:59:32
  TRACK 79 AUDIO
    TITLE "4:cjc137_5464"
    INDEX 01 01:00:45
  TRACK 80 AUDIO
    TITLE "0:"
    INDEX 01 01:01:72
  TRACK 81 AUDIO
    TITLE "6:cjc137_5465"
    INDEX 01 01:02:03
  TRACK 82 AUDIO
    TITLE "0:"
    INDEX 01 01:03:12
  TRACK 83 AUDIO
    TITLE "5:cjc137_5466"
    INDEX 01 01:03:24
  TRACK 84 AUDIO
    TITLE "0:"
    INDEX 01 01:04:48
  TRACK 85 AUDIO
    TITLE "4:cjc137_5467"
    INDEX 01 01:05:58
  TRACK 86 AUDIO
    TITLE "0:"
    INDEX 01 01:07:21
  TRACK 87 AUDIO
    TITLE "6:cjc137_5468"
    INDEX 01 01:07:31
  TRACK 88 AUDIO
    TITLE "0:"
    INDEX 01 01:08:42
  TRACK 89 AUDIO
    TITLE "5:cjc137_5469"
    INDEX 01 01:08:48
  TRACK 90 AUDIO
    TITLE "0:"
    INDEX 01 01:10:12
  TRACK 91 AUDIO
    TITLE "4:cjc137_5470"
    INDEX 01 01:11:25
  TRACK 92 AUDIO
    TITLE "0:"
    INDEX 01 01:12:56
  TRACK 93 AUDIO
    TITLE "6:cjc137_5471"
    INDEX 01 01:12:64
  TRACK 94 AUDIO
    TITLE "0:"
    INDEX 01 01:14:08
  TRACK 95 AUDIO
    TITLE "5:cjc137_5472"
    INDEX 01 01:14:14
  TRACK 96 AUDIO
    TITLE "0:"
    INDEX 01 01:15:48
  TRACK 97 AUDIO
    TITLE "4:cjc137_5473"
    INDEX 01 01:16:54
  TRACK 98 AUDIO
    TITLE "0:"
    INDEX 01 01:17:69
  TRACK 99 AUDIO
    TITLE "6:cjc137_5474"
    INDEX 01 01:18:02
  TRACK 100 AUDIO
    TITLE "0:"
    INDEX 01 01:19:09
  TRACK 101 AUDIO
    TITLE "5:cjc137_5475"
    INDEX 01 01:19:17
  TRACK 102 AUDIO
    TITLE "0:"
    INDEX 01 01:20:30
  TRACK 103 AUDIO
    TITLE "4:cjc137_5476"
    INDEX 01 01:21:39
  TRACK 104 AUDIO
    TITLE "0:"
    INDEX 01 01:22:60
  TRACK 105 AUDIO
    TITLE "6:cjc137_5477"
    INDEX 01 01:22:68
  TRACK 106 AUDIO
    TITLE "0:"
    INDEX 01 01:24:14
  TRACK 107 AUDIO
    TITLE "5:cjc137_5478"
    INDEX 01 01:24:22
  TRACK 108 AUDIO
    TITLE "0:"
    INDEX 01 01:25:41
  TRACK 109 AUDIO
    TITLE "4:cjc137_5479"
    INDEX 01 01:26:50
  TRACK 110 AUDIO
    TITLE "0:"
    INDEX 01 01:27:63
  TRACK 111 AUDIO
    TITLE "6:cjc137_5480"
    INDEX 01 01:27:73
  TRACK 112 AUDIO
    TITLE "0:"
    INDEX 01 01:29:15
  TRACK 113 AUDIO
    TITLE "5:cjc137_5481"
    INDEX 01 01:29:19
  TRACK 114 AUDIO
    TITLE "0:"
    INDEX 01 01:30:36
  TRACK 115 AUDIO
    TITLE "4:cjc137_5482"
    INDEX 01 01:31:43
  TRACK 116 AUDIO
    TITLE "0:"
    INDEX 01 01:32:57
  TRACK 117 AUDIO
    TITLE "6:cjc137_5483"
    INDEX 01 01:32:64
  TRACK 118 AUDIO
    TITLE "0:"
    INDEX 01 01:34:06
  TRACK 119 AUDIO
    TITLE "5:cjc137_5484"
    INDEX 01 01:34:12
  TRACK 120 AUDIO
    TITLE "0:"
    INDEX 01 01:35:27
